<?xml version="1.0" encoding="UTF-8"?>
<!DOCTYPE svg PUBLIC "-//W3C//DTD SVG 1.1//EN" "http://www.w3.org/Graphics/SVG/1.1/DTD/svg11.dtd">
<svg version="1.1" id="Layer_1" xmlns="http://www.w3.org/2000/svg" xmlns:xlink="http://www.w3.org/1999/xlink" x="0px" y="0px" viewBox="0 0 2014 1674.641" style="enable-background:new 0 0 2014 1674.641;" xml:space="preserve">
<g>
	<g>
		<path d="M44.883,1173.316c0,169.585,92.136,317.373,229.075,396.587V776.375C137.017,855.591,44.883,1003.743,44.883,1173.316z"/>
		<path d="M1496.492,173.21c-338.535-181.18-640.455-181.191-978.978,0c-115.337,61.726-232.101,201.313-232.101,348.663v1048.02    h125.991V521.873c0-100.785,121.243-229.182,225.541-272.385c280.148-116.037,459.996-116.037,740.11,0    c104.303,43.203,225.541,171.6,225.541,272.385v1048.02h125.991V521.873C1728.587,374.517,1611.824,234.936,1496.492,173.21z"/>
		<path d="M1740.041,776.375v793.529c136.941-79.214,229.075-227.002,229.075-396.587    C1969.117,1003.743,1876.983,855.591,1740.041,776.375z"/>
		<path d="M541.724,709.027h-70.645c-27.201,0-49.252,22.051-49.252,49.253v829.789c0,27.201,22.05,49.252,49.252,49.252h70.645    c27.201,0,49.252-22.051,49.252-49.252V758.28C590.976,731.078,568.926,709.027,541.724,709.027z"/>
		<path d="M1541.983,709.027h-70.646c-27.2,0-49.252,22.051-49.252,49.253v829.789c0,27.201,22.052,49.252,49.252,49.252h70.646    c27.2,0,49.252-22.051,49.252-49.252V758.28C1591.234,731.078,1569.183,709.027,1541.983,709.027z"/>
	</g>
	<g>
		<path d="M595.967,1132.815c4.322-0.219,8.643-0.184,12.965,0c0.197,4.557,3.624,24.404,4.471,95.602    c0,1.438,0.298,2.849,0.728,4.225c0.691,13.2-0.668,21.337,0.868,26.298c0.386,12.904,0.053,25.834,0.158,38.746h10.467    c10.735-37.493,8.785-86.788,9.941-115.01c1.07-3.103,0.614-6.426,0.868-9.634c0.615-2.041,1.597-9.992,1.753-11.519    c0.368,0.377,1.113,1.131,1.481,1.508c0.079,4.827,0.295,5.098,2.007,12.833c0.342,0,1.034-0.009,1.376-0.009    c0.421-1.771,0.877-3.515,1.315-5.277l0.657-0.009c0.202,4.611-0.719,9.38,0.684,13.859c0.491,4.374-0.508,8.889,0.85,13.149    c0.114,1.683,0.175,3.357,0.263,5.049c0.552-0.92,1.122-1.85,1.692-2.77c0.052-13.129,0.408,0.674,0.894-17.479    c0.307,0.552,0.92,1.657,1.227,2.209c0.316,0.018,0.938,0.044,1.245,0.061c2.638-11.892,2.56-18.294,3.647-51.86    c8.152-0.21,16.314-0.263,24.466,0.044c0.018,2.314-0.018,4.681,0.78,6.89c0.677,13.255,1.433,10.704,2.016,18.926    c1.554,2.913,2.279,3.212,5.295,20.714c0.394,0,1.183,0,1.578,0.009c0.454-9.931,0.998-1.96,0.964-13.184l0.868,0.009    c0.096,3.734-0.561,7.609,0.684,11.229c0.298,3.498-0.307,7.127,0.868,10.519c0.307,3.498-0.307,7.135,0.877,10.519    c0.307,3.498-0.307,7.127,0.877,10.519c0.368,3.787-0.394,7.714,0.868,11.387c0.438,4.085-0.465,8.319,0.877,12.281    c0.298,3.498-0.298,7.127,0.868,10.519c0.949,15.108,1.515,17.226,2.858,21.626c0.421-0.412,1.262-1.227,1.692-1.639    c-0.187-3.823,0.79-9.648,3.98-14.937c0.701,1.157,1.411,2.332,2.13,3.498c0.018,0.412,0.053,1.236,0.07,1.648    c0.894,1.657,1.815,3.357,3.261,4.629c0.52-4.824,0.271-3.677,1.525-8.757c0.155-0.87,1.114-8.042,1.552-15.709    c1.21-3.691,0.491-7.609,0.85-11.405c1.341-3.962,0.43-8.196,0.877-12.272c0,0,6.76-64.946,7.004-68.375    c1.008-2.77,0.728-5.742,0.728-8.617c1.727,0,3.471,0,5.225-0.009c0,3.173-0.377,6.443,0.701,9.494    c0.152,3.522,0.148,41.365,1.753,46.478c0.447,4.076-0.473,8.31,0.877,12.272c0.289,3.498-0.281,7.118,0.85,10.51    c0.612,11.986,0.925,9.898,2.016,17.383c0.43,0.403,1.289,1.21,1.718,1.613c0.386-0.395,1.157-1.175,1.543-1.569    c1.113-3.427,2.27-6.908,2.06-10.572c0.351,0.377,1.043,1.122,1.394,1.49c0.307,0.982,0.631,1.972,0.982,2.954    c0.009,0.824,0.035,1.648,0.07,2.472c0.736,0.912,1.499,1.841,2.279,2.744c1.695-6.242,1.537-5.465,2.367-9.923    c0.394-0.377,1.175-1.122,1.569-1.499c-0.026,1.455-0.035,2.928-0.044,4.392c0.43,0.386,1.28,1.148,1.709,1.534    c2.593-15.316,1.515-32.185,4.646-59.933h0.517c0.257,2.44,0.455,5.251,2.656,12.053c0.04,1.752,2.071,29.42,6.46,44.391    c0.377-0.386,1.131-1.166,1.508-1.56c2.511-20.088,0.17,17.604,5.33-78.561l0.622,0.009c0.403,1.569,0.842,3.13,1.28,4.699    c0.395-0.377,1.175-1.148,1.569-1.534c0.153-5.981,0.067-4.293,1.201-9.362c6.539-0.281,13.079-0.289,19.627-0.018    c1.093,6.281,3.062,17.853,3.831,24.948c0.403-0.377,1.219-1.14,1.631-1.525c0.133-3.59,1.852-14.417,2.919-17.453    c0.377,0.377,1.14,1.122,1.516,1.499c-0.034,12.962,0.097,3.675,0.947,13.657c0.421,0.009,1.253,0.009,1.674,0.009    c0-1.762,0.009-3.524,0.026-5.277h1.718c0.237,4.602-0.701,9.371,0.71,13.85c0.386,3.787-0.412,7.732,0.877,11.405    c0.298,3.498-0.298,7.127,0.859,10.519c0.455,8.447,1.972,19.645,2.595,21.906c-0.347,7.057,9.094,35.294,9.888,54.043    c0.429-0.395,1.28-1.192,1.709-1.587c0.061-1.42,0.14-2.84,0.263-4.252c0.885-2.831,0.675-5.829,0.85-8.748    c1.131-3.401,0.561-7.022,0.859-10.519c1.166-3.393,0.561-7.022,0.876-10.519c1.157-3.392,0.57-7.022,0.877-10.528    c0.697-2.038,1.719-16.578,1.78-17.532c0.086-0.331,0.978-5.454,1.788-8.924c2.042-3.033,3.515-6.399,5.26-9.599    c0.324,0.368,0.964,1.122,1.289,1.499c2.896,10.614,5.277,40.7,5.277,40.701c1.101,16.794,2.417,23.952,2.866,28.779    c0.412,0.394,1.245,1.175,1.657,1.569c0.071-0.869,8.706-77.968,8.959-86.556c0.561-1.779,1.105-3.559,1.727-5.312    c0.412,0.394,1.227,1.183,1.639,1.578c0.009,0.57,0.017,1.701,0.017,2.27c0.403,0,1.219-0.009,1.622-0.009    c1.24-7.203,1.236-3.14,2.121-13.342c1.017-3.41,0.5-7.013,0.798-10.51c0.666-1.929,0.745-3.971,0.85-5.987    c1.981-0.017,3.98-0.017,5.987-0.061c0.738,15.014,3.226,81.388,5.452,98.881c2.794-5.344,3.327-18.194,3.313-23.046    c0.526,0.92,1.061,1.841,1.604,2.779c1.005,8.595,1.291,4.766,1.955,12.124c0.412-0.386,1.236-1.166,1.657-1.56    c0.07-1.131,0.167-2.253,0.29-3.375c3.077-10.573,4.023-80.044,5.303-85.767c11.203-0.333,22.415-0.307,33.618-0.026    c2.519,9.333-0.185,1.64,3.165,10.651c1.008-0.035,2.025-0.07,3.059-0.105c3.706,11.86,4.661,36.592,6.136,41.086    c0.237,3.743-0.228,7.618,1.324,11.159c1.832-0.973,3.532-4.164,5.768-2.27c0.311,1.769,1.139,5.743,1.674,7.74    c0.096,1.99,0.052,4.006,0.342,5.987c0.955,1.779,3.182,1.078,4.839,1.35c2.515,9.18,4.175,17.629,4.865,22.318    c3.942-2.424,4.424-5.052,6.049-11.527c1.105-1.981,2.621-3.682,4.252-5.251c-0.009-1.131-0.009-2.262,0.009-3.384    c0.386,0.377,1.149,1.131,1.534,1.508c0.333,1.797,0.754,3.577,1.21,5.365c0.359-0.386,1.087-1.166,1.446-1.552    c0.649-2.376,1.403-4.716,2.183-7.048c0.316,0.377,0.947,1.148,1.262,1.525c1.645,7.111,0.322,3.568,2.06,21.065    c0.429-0.395,1.271-1.175,1.692-1.56c0.026-1.999,0.07-3.997,0.21-5.987c1.481-4.83,0.263-9.949,0.868-14.902    c1.639-6.285,0.123-12.877,0.877-19.285c1.683-7.451,0.07-15.218,0.877-22.792c1.674-7.451,0.07-15.227,0.868-22.8    c1.219-3.62,0.596-7.495,0.684-11.229h4.979c2.486,11.696-0.075,13.584,1.867,20.004c0.438,4.076-0.456,8.31,0.859,12.281    c0.71,13.915,2.152,15.948,2.875,21.74c0.403,0.395,1.201,1.192,1.604,1.587c2.183-6.047-0.403-11.103,3.024-22.283    c0.316,0,0.964-0.009,1.289-0.009c0.07,1.339,1.748,15.516,3.112,20.688c3.189-6.785,3.21-47.072,3.2-54.051    c9.432-0.307,18.882-0.272,28.323,0.026c0.079,1.105,0.202,2.297,0.833,3.27c1.219-0.359,1.613-2.13,1.201-3.226    c0.684,0,2.042,0.017,2.726,0.017c0.193,1.701,0.421,3.401,0.912,5.049c0.745,6.11-0.754,12.422,0.877,18.417    c0.622,4.944-0.64,10.081,0.885,14.902c0.438,4.076-0.464,8.31,0.859,12.272c0.587,5.786-0.649,11.747,1.157,17.392    c0.342,0.359,1.017,1.087,1.35,1.455c0.973-1.806,2.025-3.576,3.296-5.207c2.899,9.94,3.548,20.233,4.146,30.129    c2.753-4.301,1.495-7.983,6.198-43.26c1.07-1.122,2.156-2.227,3.261-3.331c1.546-13.203,1.281-18.245,4.804-28.139    c0.719,1.183,1.42,2.384,2.139,3.594c6.049,34.545,2.934,63.483,10.432,89.607c-0.114,5.067,1.359,9.993,1.052,15.06    c-0.079,2.016,0.035,4.059,0.719,5.978c0.359,6.487,0.088,12.991,0.131,19.496c-0.026,3.813,1.113,7.53,1.017,11.361h1.639    c0.973-2.533,1.026-5.233,0.991-7.898c-0.096-2.682,0.728-5.26,0.842-7.907c0.149-3.305-0.272-6.627,0.342-9.897    c1.052-4.874,0.254-9.879,0.719-14.806c1.306-3.962,0.421-8.188,0.859-12.264c1.069-3.103,0.631-6.426,0.885-9.634    c0.71-2.034,0.736-4.199,0.763-6.329c0.535-0.92,1.087-1.841,1.657-2.753c0.009,0.693,0.009,2.078,0.009,2.77    c0.421,0.394,1.254,1.192,1.674,1.595c1.881-6.653,1.973-16.337,2.025-17.208c1.324-3.962,0.421-8.188,0.868-12.273    c1.508-4.821,0.263-9.949,0.885-14.902c1.534-5.119,0.21-10.537,0.868-15.779c1.438-4.777,0.43-9.836,0.684-14.736l0.579,0.009    c4.58,20.94-1.764,21.194,8.003,57.654c0.035,3.743,0.315,7.477,1.14,11.133c0.771,1.227,1.56,2.446,2.375,3.664    c2.187-18.959,0.397-16.093,1.254-24.413c1.525-5.119,0.228-10.537,0.876-15.779c1.525-5.119,0.219-10.537,0.876-15.779    c1.482-5.155,0.351-10.607,0.728-15.884c3.781-1.853,5.985-19.261,6.241-23.449c11.896-0.298,23.809-0.289,35.704,0    c0.018,2.314-0.044,4.69,0.789,6.899c1.385,15.795,1.043,17.456,1.034,20.679c0.438-0.386,1.297-1.14,1.727-1.525    c0.313-2.188-0.001-0.959,1.21-4.953h1.157c7.495,34.264,1.885,96.567,10.537,107.568c4.66-9.896,5.508-48.83,5.75-50.764    c0.339-1.036,7.792-66.458,7.846-67.323h0.719c0.315,5.479-0.815,11.133,0.701,16.48c0.219,3.217-0.175,6.522,0.833,9.634    c0.096,1.35,0.175,2.709,0.263,4.076c1.113,1.78,2.262,3.55,3.349,5.356c0.07,1.85,0.202,3.717,0.806,5.487    c0.237,3.208-0.21,6.539,0.877,9.643c0.438,4.076-0.456,8.301,0.868,12.264c0.64,5.233-0.666,10.659,0.868,15.779    c0.666,5.531-0.693,11.238,0.877,16.656c0.617,10.342-0.612,22.781,0.868,27.175c0.123,1.99,0.167,3.989,0.21,5.987    c0.429,0.394,1.28,1.183,1.7,1.578c3.526-23.595,3.006-33.165,5.417-44.234l0.526,0.026c2.215,9.395,0.757,4.828,3.042,12.623    c0.377-0.377,1.14-1.14,1.517-1.516c2.464-9.857,5.395-72.486,5.408-73.354l0.71,0.009c0.044,0.447,0.131,1.341,0.167,1.779    c0.605-0.018,1.814-0.07,2.411-0.088c2.367,8.449,6.032,43.591,6.075,43.725c0.517,4.348-1.026,10.134,3.296,12.982    c12.367-46.276,9.589-65.188,12.904-92.683c11.51-0.228,23.028-0.228,34.547-0.018c0.316,1.131,0.649,2.253,1.008,3.375    c0,0.001,5.242,57.934,5.242,57.935c2.528,35.686-1.458,8.139,4.62,49.809c0.412,0.395,1.227,1.175,1.639,1.56    c0.117-0.869,4.225-26.319,4.576-34.135c3.883,7.547,1.348,7.067,5.198,13.465c0.955-0.395,1.964-0.64,3.016-0.745    c0.631,0.833,1.245,1.701,1.832,2.604c0.465,0.044,1.394,0.131,1.859,0.175c0.631-1.087,1.262-2.165,1.92-3.243    c1.331-5.87,3.349-16.952,3.752-22.327l0.71,0.018c0.324,6.355-0.877,12.877,0.666,19.11c0.64,5.242-0.666,10.659,0.885,15.788    c0.281,3.498-0.272,7.109,0.842,10.511c0.105,1.525,0.175,3.059,0.263,4.593h1.683c0.03-0.868,2.321-25.659,4.655-35.354    c0.359,0.368,1.069,1.113,1.42,1.481c0.018,2.183,0.026,4.409,0.763,6.496c0.184,2.928-0.088,5.943,0.894,8.766    c0.257,4.097-0.504,3.463,2.165,21.81c1.771-3.524,1.604-7.469,1.744-11.299c1.411-4.55,0.307-9.362,0.868-14.026    c1.604-5.996,0.149-12.299,0.877-18.409c1.63-6.285,0.114-12.877,0.868-19.285c1.587-5.698,0.158-11.711,0.868-17.532    c1.56-6.399,0.324-13.114,0.693-19.645c0.429-0.377,1.28-1.14,1.709-1.525c-0.026,2.393-0.105,4.856,0.728,7.153    c0.193,2.919-0.096,5.943,0.885,8.757c0.456,4.076-0.473,8.319,0.877,12.281c0.447,4.076-0.473,8.31,0.877,12.264    c0.368,3.796-0.386,7.723,0.868,11.405c1.036,17.235,1.642,16.652,2.972,21.792c0.43,0.438,1.297,1.306,1.727,1.736    c0.815-1.21,1.63-2.419,2.446-3.638c2.923-13.017,5.323-15.63,6.426-33.039c1.186-4.545,6.856-57.745,6.873-58.619    c13.114-0.333,26.237-0.298,39.351,0c-0.07,25.539-0.242,25.33,0.701,27.92c0.701,5.83-0.737,11.843,0.868,17.541    c0.622,4.944-0.64,10.072,0.885,14.902c0.491,4.374-0.517,8.898,0.859,13.158c0.545,12.053,0.783,6.687,1.964,16.629    c1.858,1.052,3.901,1.981,5.076,3.892c10.959-1.859,6.983-29.405,13.724-64.092v-42.917c-0.174-0.927-0.341-1.93-0.488-3.102    c-0.544-0.947-1.069-1.885-1.578-2.823c-3.578-19.889-0.465-3.857-2.901-38.229c-0.302-0.87-2.483-19.751-2.542-20.46    c-0.701-0.894-1.359-1.788-2.051-2.665c-2.62,8.857-4.816,32.1-4.97,37.869c-0.885-1.192-1.736-2.411-2.56-3.62v-1.63    c-0.991-1.744-1.946-3.489-2.928-5.216c-0.438,0.517-1.306,1.543-1.745,2.06c-0.955,0-1.885-0.009-2.796-0.009    c-0.71-0.71-1.394-1.42-2.069-2.13c-0.827-5.187-0.922-3.934-1.999-19.093c-1.271-3.673-0.465-7.609-0.877-11.405    c-1.201-3.384-0.535-7.013-0.877-10.51c-0.824-2.7-0.728-5.54-1.166-8.293c-0.21-0.359-0.622-1.078-0.833-1.438    c-0.622-3.147-0.456-6.373-0.631-9.555c-1.056-2.973-1.705-15.787-1.762-16.656c-1.704-4.872-1.165-33.567-5.321-44.54    l-0.377,0.009c-0.237,0.579-0.701,1.736-0.938,2.323c-0.401,3.921-11.044,109.351-11.711,112.521l-0.71,0.009    c-0.251-7.498,0.009-3.82-1.201-9.651h-1.236c-1.98,7.546-1.844,6.61-2.121,9.073c-0.254,0.622-0.771,1.867-1.026,2.481    c-1.078-0.421-2.121-0.85-3.156-1.271c-3.451,12.972-2.154,26.149-5.549,58.154c-5.163,0.21-10.326,0.272-15.472,0.009    c-2.367-4.585,0.263-10.046-1.674-14.788c-5.048-49.685-2.675-22.48-9.038-64.474c-0.368,0.368-1.096,1.104-1.464,1.473    c-3.2,24.397-3.796,53.375-3.866,54.244c-0.902,2.444-0.812,2.981-0.71,23.546c-4.628,0.21-9.257,0.202-13.877,0.009    c-0.062-1.098-0.753-10.145-3.41-19.96c-1.609-6.088-2.241-34.338-5.531-45.399c-0.386,0.403-1.157,1.218-1.543,1.622    c0,0.002-2.428,17.821-2.428,17.821c-1.87,7.96-2.043,7.751-2.209,12.123c-0.894,1.359-1.823,2.682-2.779,3.989    c-1.026-0.78-2.016-1.552-3.024-2.297c-4.94,16.27-1.404,25.036-3.831,32.049c-1.745,0.009-3.48,0.018-5.198,0.07    c-0.149-4.059,0.605-8.249-0.693-12.176c-0.596-4.664,0.579-9.494-0.877-14.026c-0.543-4.365,0.509-8.897-0.868-13.149    c-0.245-2.98-0.219-5.97-0.184-8.959h-0.798c-0.097,1.525-0.175,3.051-0.281,4.585c-1.043,3.042-0.675,6.285-0.666,9.441h-0.885    c-0.454-35.146-2.288-72.71-9.792-140.651c-0.693-1.175-1.359-2.332-2.043-3.489c-1.043,1.411-2.042,2.84-2.954,4.33    c-0.744,4.308-0.526,3.106-1.56,7.153c-3.447,12.335-8.898,66.727-8.898,66.727c-0.359,3.498,0.307,7.135-0.877,10.519    c-2.297,22.912,0.443,23.804-2.604,35.932c-0.184,2.639-0.044,5.347-0.894,7.89c-0.228,3.051-0.158,6.101-0.368,9.152    c-1.499,4.83-0.237,9.949-0.877,14.902c-1.569,5.409-0.167,11.124-0.877,16.647c-0.517,1.683-0.728,3.427-0.912,5.172    c-6.645,0.202-13.289,0.254-19.925-0.044c0.064-10.529-0.526-4.443-0.973-12.334l-0.701,0.009    c-0.965,7.442-1.078,2.9-0.973,12.272c-1.183-0.009-2.349-0.009-3.506,0c0.078-9.359-1.521-16.3-2.042-19.811    c-3.15,1.808-4.963,16.633-5.119,19.899c-5.987,0.254-11.974,0.228-17.953-0.035c-2.68-8.301,0.155-12.807-1.885-20.022    c-0.649-4.944,0.631-10.072-0.877-14.902c-0.28-3.629-0.088-7.276-0.35-10.905c-0.735-2.102-1.517-17.095-2.06-19.715    c-1.139-4.529-1.144-4.594-1.289-6.811c-0.833-1.219-1.674-2.428-2.533-3.62c-0.026-0.394-0.088-1.192-0.114-1.587    c-1.131-2.095-2.358-4.129-3.813-6.005c-0.894,0.955-1.762,1.911-2.63,2.875c-0.491,0-1.473-0.009-1.964-0.009    c-0.281,0.579-0.833,1.744-1.113,2.323c-0.044,2.393,0.018,4.839-0.78,7.127c-0.517,8.012,0.14,16.051-0.359,24.054    c-1.709,4.69,0.307,9.827-1.403,14.517c-0.175,2.288-0.202,4.585-0.193,6.881c-0.43,0.377-1.297,1.131-1.727,1.516    c0.009-2.682,0.245-5.453-0.71-8.012c-0.596-4.655,0.57-9.485-0.877-14.026c-0.438-5.382,0.079-10.782-0.359-16.165    c-1.587-5.698-0.149-11.712-0.876-17.532c-1.394-4.251-0.333-8.784-0.868-13.149c-0.903-2.358-0.754-4.909-0.728-7.381    c-0.429-0.368-1.297-1.122-1.727-1.49c-0.272,4.699,0.71,9.564-0.701,14.131c-0.421,3.787,0.385,7.723-0.877,11.396    c-0.552,4.366,0.526,8.898-0.877,13.149c-0.368,4.506,0.018,9.029-0.35,13.535c-1.438,4.769-0.421,9.818-0.701,14.709h-0.868    c-0.009-2.867,0.289-5.829-0.71-8.573c-0.245-3.34-0.123-6.688-0.351-10.028c-1.349-3.85-2.513-33.865-5.347-39.938    c-4.096,0.324-4.685-1.352-7.083-16.191c-0.859-3.445-0.482-7.022-0.675-10.528c-5.99-19.969-5.779-31.074-8.74-43.006    c-0.412,0.377-1.236,1.14-1.648,1.516c-4.042,68.84-13.256,161.005-13.438,161.874c-6.241,0.263-12.483,0.281-18.724-0.018    c-2.084-7.236,0.044-0.063-2.472-11.072c-1.704,1.184-2.333,2.852-3.27,11.072c-6.54,0.281-13.088,0.272-19.627,0.035    c-0.289-0.605-0.859-1.815-1.148-2.419c-0.438-5.567,0.754-11.308-0.745-16.752c-0.657-4.953,0.623-10.081-0.885-14.902    c-0.316-3.918-0.044-7.863-0.351-11.781c-1.175-3.384-0.543-7.013-0.868-10.519c-1.201-3.375-0.543-7.013-0.877-10.519    c-1.105-3.094-0.622-6.426-0.885-9.634c-0.991-2.823-0.675-5.838-0.885-8.766c-0.64-1.823-0.737-3.752-0.807-5.654    c-0.412-0.377-1.236-1.122-1.648-1.49c-0.023,1.517,0.6,9.192-2.016,20.118c-2.092-3.749-2.373-11.288-2.568-14.727    c-0.728-2.095-0.719-4.33-0.728-6.513c-0.412-0.377-1.236-1.122-1.648-1.49c-0.017,2.384,0.105,4.839-0.745,7.118    c-1.625,13.049-1.923,57.246-2.113,60.871c-1.254,3.524,0.009,7.513-2.086,10.808c-3.055-13.191-3.982-41.883-4.041-42.752    c-0.195-0.562-2.542-23.345-2.577-24.352h-0.684c-0.074,0.87-1.059,13.181-1.639,14.709c-0.324,3.927-0.052,7.863-0.359,11.79    c-1.806,5.26,0.403,10.993-1.403,16.261c-0.333,4.444-0.14,8.906-0.175,13.359l-0.85-0.026c-0.009-2.402-0.035-4.804-0.21-7.197    c-1.955-6.715,0.561-13.929-1.394-20.644c-0.421-5.093,0.061-10.212-0.359-15.297c-1.534-5.119-0.202-10.546-0.877-15.779    c-1.341-3.962-0.386-8.196-0.868-12.272c-1.473-4.856-0.368-10.02-0.745-15.007c-0.281-0.587-0.85-1.753-1.131-2.332l-0.342-0.026    c-2.383,6.384-1.846,9.872-4.725,15.043c-1.087-0.053-2.156-0.097-3.217-0.14c-0.297,2.566-0.568,6.574-3.226,12.614    c-1.078-0.456-2.139-0.912-3.173-1.385c-0.903,1.043-1.753,2.121-2.568,3.226c-1.541,14.346-1.612,25.276-6.522,59.863    c-0.64,1.394-1.613,2.568-2.902,3.384c-0.643-9.977-2.268-14.232-2.901-20.381c-0.395-0.368-1.192-1.113-1.587-1.482    c-3.995,25.967-3.614,31.519-5.628,38.86l-0.526,0.009c-5.004-29.024-4.245-32.066-6.592-40.692    c-1.964,0.307-3.165,1.56-3.463,3.506c-1.455,1.648-2.858,3.34-4.068,5.172c-0.113,0.869-5.441,26.261-5.242,38.194    c-7.206,0.316-14.42,0.281-21.626,0c-1.59-6.96-1.588-22.528-4.032-40.043c-2.449,4.247-1.567,9.163-3.401,17.199h-0.622    c-0.096-1.999-0.167-4.024-0.798-5.943c-0.193-2.463-0.228-4.935-0.403-7.398c-0.214-0.596-2.541-21.185-2.551-21.389    c-0.342-0.368-1.034-1.096-1.376-1.464c-2.624,7.092-1.98,15.125-3.936,40.762c-0.943,2.679-1.212,14.307-2.463,18.251    l-0.579-0.009c-0.263-0.587-0.797-1.762-1.069-2.349c-0.044-2.393,0.018-4.839-0.798-7.127c-0.482-4.076,0.456-8.31-0.877-12.264    c-0.543-4.374,0.526-8.906-0.876-13.149c-0.272-3.629-0.088-7.276-0.351-10.905c-2.209-6.347,1.236-13.623-2.226-19.618    c-1.659,10.114-0.922,6.007-1.289,12.115c-1.324,3.962-0.395,8.196-0.868,12.272c-1.648,4.401,0.228,9.24-1.394,13.64    c-0.263,3.27-0.202,6.557-0.184,9.835l-0.859,0.009c0-2.7,0.009-5.409-0.202-8.091c0,0-1.894-14.814-3.559-26.64    c-1.025,2.161-2.494,6.353-3.419,11.457c-0.71,1.201-1.42,2.411-2.148,3.603c-3.406-7.194-4.001-15.55-4.295-17.699    c-5.625-12.505-4.562-25.342-7.67-33.671h-0.403c-3.503,9.782,0.435,1.884-6.005,38.317c-0.184,0.359-0.552,1.087-0.728,1.446    c-0.324,1.727-0.57,3.463-0.841,5.198c-0.947,3.717-0.395,7.583-0.719,11.361c-1.289,3.664-0.473,7.6-0.885,11.396    c-0.594,1.9-1.634,10.122-1.718,10.993c-1.122,0.745-2.244,1.473-3.349,2.218c-0.386,5.626,0.13,1.269-1.175,7.714    c-3.953,0.175-7.907,0.175-11.852,0.044c-0.105-2.051-0.158-4.129-0.842-6.075c-0.412-3.796,0.395-7.732-0.885-11.396    c-0.333-3.498,0.307-7.127-0.859-10.51c-0.491-6.548,0.123-13.123-0.368-19.671c0,0-5.516-54.514-8.845-67.306h-1.473    c0.015,4.792-0.944,14.581-1.595,16.463c-0.351,3.498,0.307,7.136-0.877,10.519c-0.491,4.076,0.465,8.31-0.877,12.272    c-0.491,4.076,0.456,8.31-0.877,12.272c-0.28,3.629-0.079,7.276-0.35,10.905c-1.262,3.673-0.465,7.609-0.868,11.396    c-1.289,3.664-0.473,7.6-0.877,11.396c-1.289,3.664-0.482,7.6-0.877,11.387c-1.429,4.243-0.351,8.784-0.894,13.149    c-0.517,1.683-0.728,3.427-0.912,5.163c-3.629,0.123-7.249,0.123-10.861,0.009c-0.359-1.131-0.719-2.253-1.078-3.357    c-0.554-15.475,0.663-21.354-0.815-25.474c-0.498-7.528-0.096-59.18-5.654-78.719c-6.429-1.051-3.223-11.691-7.057-21.424    l-0.438,0.018c-4.443,43.319-2.365,60.076-3.857,78.211c-1.63,4.401,0.21,9.231-1.385,13.64c-0.184,2.463-0.219,4.935-0.395,7.399    c-0.666,2.007-0.736,4.138-0.824,6.241c-0.245,0.64-0.745,1.928-0.99,2.568c-0.351-0.359-1.061-1.096-1.411-1.455    c-0.134-6.652-0.225-0.761-1.166-13c-1.403-3.839,0.079-8.056-1.359-11.887c-0.342-4.436-0.149-8.897-0.184-13.342h-1.622    c-0.042,0.869-1.142,13.049-1.709,14.709c-0.246,3.34-0.114,6.688-0.351,10.028c-1.402,4.243-0.342,8.775-0.877,13.14    c-1.473,4.541-0.281,9.371-0.885,14.026c-0.999,2.761-0.728,5.724-0.71,8.599c-0.438-0.009-1.297-0.009-1.736-0.018    c-0.091-1.768-2.814-61.555-2.814-61.555c-0.038-0.109-5.456-50.812-6.908-56.26c-0.359,0.386-1.078,1.148-1.446,1.534    c-1.054,4.726-0.995,2.579-1.157,9.371c-0.298-0.026-0.885-0.07-1.183-0.096c-0.938-1.324-1.928-2.612-2.919-3.892    c-2.823,14.314-4.439,36.549-5.97,44.873c-0.184,0.359-0.552,1.078-0.736,1.438c-0.281,1.359-0.526,2.735-0.754,4.103h-0.657    c0.028-7.733-1.59-17.163-2.849-24.896c-0.517,0.877-1.026,1.762-1.516,2.647c-0.018,2.972,0.315,6.049-0.71,8.906    c-0.605,4.655,0.561,9.485-0.876,14.026c-0.754,6.11,0.71,12.404-0.868,18.409c-0.131,1.63-0.202,3.279-0.254,4.918    c-0.544,0.938-1.087,1.876-1.613,2.814c-0.987,9.186-0.327-1.6-1.14,11.931c-1.245,3.673-0.473,7.6-0.859,11.396    c-1.201,3.34-0.657,6.934-0.701,10.397c-6.732,0.254-13.456,0.298-20.179,0.009c-0.044-3.471,0.473-7.057-0.684-10.405    c-0.649-4.944,0.622-10.072-0.885-14.894c-0.307-3.927-0.052-7.863-0.351-11.782c-1.613-5.996-0.149-12.316-0.868-18.435    c-1.339-5.048-0.518-5.014-3.603-14.981c-1.154-4.75-0.731-4.479-2.621-9.59c-0.351,0.368-1.069,1.105-1.429,1.473    c-3.59,28.719-2.637,24.356-5.26,29.112c-0.601,4.918-1.642,5.918-2.831,13c-0.71,1.183-1.403,2.358-2.113,3.533    c-0.281-0.684-0.833-2.051-1.113-2.735c-0.247-4.495-0.408-4.871-1.166-8.196c-0.386,0-1.175,0-1.569-0.009    c-0.044,1.359-0.105,2.717-0.158,4.076c-3.067-6.436-0.91-7.799-1.823-18.286c-1.446-4.541-0.272-9.371-0.868-14.026    c-1.026-2.849-0.71-5.908-0.745-8.871c-0.289-0.587-0.868-1.744-1.166-2.332h-0.473c-0.83,6.893-1.628,7.466-1.876,15.209    c-0.421-0.377-1.262-1.131-1.683-1.499c-0.009-2.306-0.035-4.602-0.193-6.89c-1.183-3.384-0.535-7.013-0.877-10.51    c-1.192-3.384-0.535-7.022-0.868-10.519c-1.201-3.384-0.543-7.022-0.885-10.519c0,0-3.515-26.665-3.515-26.666    c-0.324-0.368-0.982-1.096-1.306-1.455c-2.09,10.391-0.875,47.421-5.628,75.94c-0.395-0.377-1.175-1.122-1.56-1.499    c-2.507-9.819-2.672-28.963-2.717-29.831c-0.561-0.894-1.113-1.788-1.657-2.682c-0.07,2.13-0.053,4.313-0.806,6.347    c-0.412,3.787,0.395,7.723-0.859,11.396c-0.71,5.531,0.675,11.247-0.877,16.656c-0.473,5.961,0.096,11.957-0.368,17.918    c-1.613,5.996-0.123,12.299-0.877,18.409c-1.446,4.532-0.281,9.362-0.868,14.017c-1.096,3.051-0.701,6.32-0.701,9.485h-5.251    c-0.333-5.488,0.78-11.133-0.701-16.489c-0.719-5.531,0.692-11.256-0.885-16.656c-0.543-4.365,0.508-8.898-0.868-13.149    c-0.219-3.051-0.158-6.11-0.368-9.152c-0.622-2.007-0.771-4.103-0.947-6.171c-3.738-17.029-1.37-12.706-7.022-45.645    c-4.711-15.28-4.495-46.356-6.978-58.128c-0.324-0.359-0.964-1.096-1.28-1.464c-0.28,1.481-0.544,2.972-0.85,4.444    c-0.085,0.868-3.823,36.378-5.198,42.901c-1.571,7.218-1.593,19.441-2.788,22.87c-0.351,3.498,0.307,7.127-0.877,10.51    c-0.491,4.076,0.465,8.31-0.877,12.272c-0.596,4.655,0.579,9.485-0.877,14.026c-0.342,4.216-0.009,8.451-0.351,12.658    c-1.464,4.541-0.272,9.371-0.885,14.026c-0.561,1.727-0.719,3.533-0.868,5.33c-0.368-0.351-1.105-1.052-1.473-1.411    c-3.32,19.616-1.334,18.132-1.867,29.296c-13.421,0.193-26.842,0.28-40.254-0.018c-0.494-1.729-3.729-21.553-4.655-33.583    c-1.297-3.559-0.026-7.46-1.359-11.01c-0.193-2.761-0.184-5.523-0.368-8.275c-1.578-5.707-0.14-11.711-0.877-17.532    c-0.529-1.612-1.765-12.284-1.858-13.158c-1.105-4.006-0.342-8.188-0.763-12.264c-1.657-6.566-0.105-13.465-0.885-20.162    c-1.639-6.566-0.105-13.465-0.877-20.162c-1.613-5.987-0.131-12.29-0.877-18.4c-1.455-4.541-0.28-9.371-0.868-14.026    c-0.85-2.288-0.763-4.742-0.789-7.127c-0.281-0.587-0.824-1.753-1.096-2.332h-0.403c-0.551,5.654-1.974,21.699-6.867,143.007    v84.684c1.97-18.939,4.281-41.148,4.281-41.149C596.116,1138.092,595.975,1135.419,595.967,1132.815z"/>
	</g>
</g>
</svg>